# xmcd
#
# Track frame offsets:
#	150
#	11557
#	21360
#	30352
#	41715
#	51187
#	58992
#	73062
#	88010
#	107697
#	119379
#	129967
#	142105
#	154795
#	166950
#	176455
#	187040
#	199500
#
# Disc length: 2810
#
# Revision: 2
# Processed by: cddbd v1.5.1PL0 Copyright (c) Steve Scherf et al.
# Submitted via: CDex 1.51
# Normalized: r0:DSETVAR1,TDELIM( - ),TSWAP
#
DISCID=fa0af812
DTITLE=Various Artist - Classic Country [CD2 - Heartbreak USA)
DYEAR=1996
DGENRE=Country
TTITLE0=Kitty Wells - Heartbreak USA
TTITLE1=Dolly Parton - Please Release Me
TTITLE2=Bob Luman - Let's Think About Living
TTITLE3=Kenny Rogers - Me And Bobby McGhee
TTITLE4=George Jones - The Race Is On
TTITLE5=Roger Miller - Dang Me
TTITLE6=R. Dean Taylor - Indiana Wants Me
TTITLE7=Kingston Trio - Tom Dooley
TTITLE8=Marty Robbins - El Paso
TTITLE9=Hank Williams - Settin' The Woods On Fire
TTITLE10=Waylon Jennings - Sally Was A Good Old Girl
TTITLE11=Ernest Tubb and Loretta Lynn - Thanks A Lot
TTITLE12=Lee Hazlewood - These Boots Are Made For Walking
TTITLE13=Johnny Cash - Next in Line
TTITLE14=Denis Olsen - Truck Drivin' Outlaw
TTITLE15=Slim Whitman - Rose Marie
TTITLE16=Johnny Horton - North To Alaska
TTITLE17=Don Gibson - Oh, Lonesome Me
EXTD=YEAR: 1996
EXTT0=
EXTT1=
EXTT2=
EXTT3=
EXTT4=
EXTT5=
EXTT6=
EXTT7=
EXTT8=
EXTT9=
EXTT10=
EXTT11=
EXTT12=
EXTT13=
EXTT14=
EXTT15=
EXTT16=
EXTT17=
PLAYORDER=
